<svg xmlns="http://www.w3.org/2000/svg" x="0px" y="0px"
width="64" height="64"
viewBox="0 0 172 172"
style=" fill:#000000;"><g fill="none" fill-rule="nonzero" stroke="none" stroke-width="1" stroke-linecap="butt" stroke-linejoin="miter" stroke-miterlimit="10" stroke-dasharray="" stroke-dashoffset="0" font-family="none" font-weight="none" font-size="none" text-anchor="none" style="mix-blend-mode: normal"><path d="M0,172v-172h172v172z" fill="none"></path><g id="original-icon" fill="#ffffff"><path d="M26.875,37.625c-2.96045,0 -5.375,2.41455 -5.375,5.375c0,2.96045 2.41455,5.375 5.375,5.375h11.92578l14.10938,56.4375c1.19678,4.78711 5.47998,8.0625 10.41406,8.0625h61.64453c4.8501,0 8.96533,-3.2124 10.24609,-7.89453l13.94141,-51.23047h-90.03125l2.6875,10.75h73.40234l-10.24609,37.625h-61.64453l-14.10937,-56.4375c-1.19678,-4.78711 -5.47998,-8.0625 -10.41406,-8.0625zM118.25,112.875c-8.83935,0 -16.125,7.28565 -16.125,16.125c0,8.83935 7.28565,16.125 16.125,16.125c8.83935,0 16.125,-7.28565 16.125,-16.125c0,-8.83935 -7.28565,-16.125 -16.125,-16.125zM69.875,112.875c-8.83935,0 -16.125,7.28565 -16.125,16.125c0,8.83935 7.28565,16.125 16.125,16.125c8.83935,0 16.125,-7.28565 16.125,-16.125c0,-8.83935 -7.28565,-16.125 -16.125,-16.125zM69.875,123.625c3.02344,0 5.375,2.35156 5.375,5.375c0,3.02344 -2.35156,5.375 -5.375,5.375c-3.02344,0 -5.375,-2.35156 -5.375,-5.375c0,-3.02344 2.35156,-5.375 5.375,-5.375zM118.25,123.625c3.02344,0 5.375,2.35156 5.375,5.375c0,3.02344 -2.35156,5.375 -5.375,5.375c-3.02344,0 -5.375,-2.35156 -5.375,-5.375c0,-3.02344 2.35156,-5.375 5.375,-5.375z"></path></g></g></svg>